# xmcd
#
# Track frame offsets:
#	150
#	12912
#	25085
#	41025
#	53485
#	64377
#	76315
#	93227
#	105720
#	111900
#
# Disc length: 1636 seconds
#
# Revision: 0
# Processed by: cddbd v1.4PL0 Copyright (c) Steve Scherf et al.
# Submitted via: EasyCDDAExtractor 4.6.9.1
#
DISCID=7706620a
DTITLE=Bill Anderson - The Legend
DYEAR=1900
DGENRE=
TTITLE0=Still
TTITLE1=The Tips of my Fingers
TTITLE2=Mama Sang a Song
TTITLE3=I Love You Drops
TTITLE4=Quits
TTITLE5=Three A.M.
TTITLE6=The Corner of My Life
TTITLE7=Po' Folks
TTITLE8=I Get the Fever
TTITLE9=Wild Weekend
EXTD=
EXTT0=
EXTT1=
EXTT2=
EXTT3=
EXTT4=
EXTT5=
EXTT6=
EXTT7=
EXTT8=
EXTT9=
PLAYORDER=
